<?xml version="1.0" standalone="no"?>
<!DOCTYPE svg PUBLIC "-//W3C//DTD SVG 20010904//EN"
 "http://www.w3.org/TR/2001/REC-SVG-20010904/DTD/svg10.dtd">
<svg version="1.0" xmlns="http://www.w3.org/2000/svg"
 width="225.000000pt" height="225.000000pt" viewBox="0 0 225.000000 225.000000"
 preserveAspectRatio="xMidYMid meet">

<g transform="translate(0.000000,225.000000) scale(0.100000,-0.100000)"
fill="#000000" stroke="none">
<path d="M1130 1953 c-36 -56 -40 -111 -10 -138 29 -26 55 -101 41 -118 -6 -8
-10 -16 -8 -18 5 -10 -13 9 -49 51 -21 25 -30 38 -19 30 11 -7 26 -21 32 -29
7 -8 15 -12 19 -9 10 10 -104 90 -117 82 -7 -4 -9 -3 -6 2 9 15 -152 56 -224
57 -53 1 -75 -4 -129 -30 -36 -18 -82 -49 -103 -71 l-38 -39 73 25 c65 22 85
24 173 19 105 -6 159 -21 325 -90 l85 -36 -155 -1 c-313 -1 -518 -53 -636
-162 -48 -44 -76 -97 -93 -177 -17 -79 -13 -81 21 -18 78 143 246 228 448 226
42 0 39 -2 -55 -33 -186 -60 -283 -133 -346 -261 -34 -69 -34 -71 -34 -205 0
-135 0 -135 36 -210 36 -74 94 -152 128 -169 15 -8 14 0 -7 62 -20 59 -23 85
-19 143 9 115 83 273 163 344 l28 25 -23 -35 c-79 -126 -106 -218 -98 -345 5
-76 11 -100 42 -163 44 -88 139 -192 219 -241 31 -18 95 -47 143 -64 80 -27
100 -30 213 -30 142 -1 210 14 325 69 134 65 255 185 326 326 34 68 69 189 69
238 l-1 35 -26 -50 c-28 -53 -73 -118 -79 -112 -2 2 1 30 7 62 23 127 100 225
205 263 l49 17 -60 3 c-124 7 -195 -42 -257 -177 -67 -144 -128 -206 -258
-261 -67 -28 -214 -39 -285 -21 -48 12 -122 45 -165 74 -24 16 -25 15 -25 -8
0 -13 2 -22 4 -20 2 2 20 -12 40 -31 54 -52 167 -104 243 -110 58 -5 157 9
213 31 l20 8 -20 -16 c-22 -18 -118 -51 -180 -63 l-40 -7 45 -9 c93 -19 249
12 323 64 48 34 29 1 -29 -49 -127 -110 -300 -164 -435 -136 l-34 7 40 12 c31
10 35 13 15 13 -16 1 -21 4 -12 9 14 9 -33 35 -86 46 -101 23 -268 151 -316
244 -9 18 -21 32 -27 32 -6 0 -9 9 -6 20 3 11 2 18 -3 15 -13 -8 -53 135 -47
171 3 19 2 32 -3 29 -4 -3 -4 13 1 36 5 22 7 44 4 48 -2 5 4 16 15 26 11 10
20 25 20 34 0 14 -2 14 -10 1 -7 -11 -8 -5 -3 20 7 41 30 80 47 80 7 0 8 -3 1
-8 -10 -6 -19 -52 -10 -52 2 0 9 17 16 38 7 20 23 54 36 75 13 20 20 37 16 37
-5 0 0 5 10 11 11 7 16 17 12 29 -3 10 -1 21 4 25 7 4 8 -1 4 -12 -6 -17 -5
-17 13 0 16 15 17 19 4 27 -13 9 -13 10 0 10 8 0 21 9 28 20 6 11 29 30 50 43
37 24 132 69 132 63 0 -11 -83 -55 -92 -50 -6 4 -8 3 -5 -3 7 -12 -50 -83 -65
-80 -6 1 -13 -5 -15 -13 -4 -13 -3 -13 6 0 17 24 13 2 -5 -25 -9 -14 -21 -22
-27 -18 -5 3 -7 1 -4 -4 4 -6 0 -24 -9 -39 -15 -28 -16 -28 -10 -4 11 51 -22
-10 -49 -89 -17 -53 -25 -98 -25 -149 0 -72 26 -192 42 -192 11 0 10 18 -2 25
-8 5 -8 11 -1 19 7 9 6 19 -5 34 -15 22 -26 142 -12 142 4 0 8 -7 8 -16 0 -8
5 -12 11 -8 8 4 8 9 0 17 -14 14 -14 47 -1 47 10 0 15 -27 11 -68 -1 -16 2
-21 10 -16 9 5 10 -1 5 -22 -4 -18 -3 -24 2 -16 7 11 12 7 19 -15 19 -53 100
-130 176 -168 94 -46 178 -61 264 -47 70 12 193 64 193 82 0 28 -129 138 -214
185 -153 82 -226 172 -226 275 l0 45 19 -41 c36 -80 83 -108 201 -119 106 -9
210 -72 210 -126 0 -41 63 -50 131 -19 36 15 47 27 63 65 22 54 26 46 -95 188
-46 54 -91 110 -100 123 -9 13 -19 21 -24 16 -4 -4 -5 -2 -2 5 8 13 -2 45 -12
39 -4 -3 -13 9 -20 25 -8 19 -18 28 -27 25 -8 -3 -13 -1 -11 4 1 5 -23 31 -53
58 -60 55 -57 56 -89 -24 l-11 -29 6 30 c4 17 7 54 8 84 2 45 -2 58 -24 81
-41 44 -55 80 -54 137 0 29 -1 53 -3 53 -2 0 -17 -21 -33 -47z m215 -413 c52
-32 60 -77 9 -50 -24 13 -63 70 -48 70 4 0 21 -9 39 -20z m-510 -227 c-4 -10
-11 -35 -15 -56 -7 -37 -20 -62 -20 -39 0 31 23 112 32 112 6 0 7 -7 3 -17z"/>
<path d="M910 1500 c-9 -6 -10 -10 -3 -10 6 0 15 5 18 10 8 12 4 12 -15 0z"/>
<path d="M721 1114 c0 -11 3 -14 6 -6 3 7 2 16 -1 19 -3 4 -6 -2 -5 -13z"/>
<path d="M801 1074 c0 -11 3 -14 6 -6 3 7 2 16 -1 19 -3 4 -6 -2 -5 -13z"/>
<path d="M722 1040 c0 -19 2 -27 5 -17 2 9 2 25 0 35 -3 9 -5 1 -5 -18z"/>
<path d="M830 959 c0 -5 5 -7 10 -4 6 3 10 8 10 11 0 2 -4 4 -10 4 -5 0 -10
-5 -10 -11z"/>
<path d="M821 904 c0 -11 3 -14 6 -6 3 7 2 16 -1 19 -3 4 -6 -2 -5 -13z"/>
<path d="M836 867 c3 -10 9 -15 12 -12 3 3 0 11 -7 18 -10 9 -11 8 -5 -6z"/>
<path d="M920 796 c0 -2 8 -10 18 -17 15 -13 16 -12 3 4 -13 16 -21 21 -21 13z"/>
<path d="M814 768 c-4 -7 -3 -10 1 -5 5 4 18 -1 29 -10 21 -18 21 -18 2 5 -22
26 -23 26 -32 10z"/>
</g>
</svg>
